PathFileType	4	(X/Y/Z)	C:\Users\Basilio\Documents\Thesis Gigler\squatting_fais\c3dfiles\040\SLS_pre_back4\markers_experimental.trc
DataRate	CameraRate	NumFrames	NumMarkers	Units	OrigDataRate	OrigDataStartFrame	OrigNumFrames
200.000000	200.000000	4	63	mm	200.000000	1092	1249
Frame#	Time	FHD			LBHD			RBHD			C7			T10			CLAV			LSHO			LUUPA			LMUPA			LDUPA			LLEP			LMEP			LRAD			LUL			LRFIN			RSHO			RUPA1			RMUPA			RDUPA			RLEP			RMEP			RRAD			RUL			RUFIN			LASI			RASI			USACR			LSACR			RSACR			LTHI1			LTHI2			LTHI3			LTHI4			LLFC			LMFC			LTIB1			LTIB2			LTIB3			LTIB4			LLMAL			LMMAL			LHEE			LMT1			LMT2			LMT5			RTHI			RTHI2			RTHI3			RTHI4			RLFC			RMFC			RTIB1			RTIB2			RTIB3			RTIB4			RLMAL			RMMAL			RHEE			RMT1			RMT2			RMT5			*61			*62			
		X1	Y1	Z1	X2	Y2	Z2	X3	Y3	Z3	X4	Y4	Z4	X5	Y5	Z5	X6	Y6	Z6	X7	Y7	Z7	X8	Y8	Z8	X9	Y9	Z9	X10	Y10	Z10	X11	Y11	Z11	X12	Y12	Z12	X13	Y13	Z13	X14	Y14	Z14	X15	Y15	Z15	X16	Y16	Z16	X17	Y17	Z17	X18	Y18	Z18	X19	Y19	Z19	X20	Y20	Z20	X21	Y21	Z21	X22	Y22	Z22	X23	Y23	Z23	X24	Y24	Z24	X25	Y25	Z25	X26	Y26	Z26	X27	Y27	Z27	X28	Y28	Z28	X29	Y29	Z29	X30	Y30	Z30	X31	Y31	Z31	X32	Y32	Z32	X33	Y33	Z33	X34	Y34	Z34	X35	Y35	Z35	X36	Y36	Z36	X37	Y37	Z37	X38	Y38	Z38	X39	Y39	Z39	X40	Y40	Z40	X41	Y41	Z41	X42	Y42	Z42	X43	Y43	Z43	X44	Y44	Z44	X45	Y45	Z45	X46	Y46	Z46	X47	Y47	Z47	X48	Y48	Z48	X49	Y49	Z49	X50	Y50	Z50	X51	Y51	Z51	X52	Y52	Z52	X53	Y53	Z53	X54	Y54	Z54	X55	Y55	Z55	X56	Y56	Z56	X57	Y57	Z57	X58	Y58	Z58	X59	Y59	Z59	X60	Y60	Z60	X61	Y61	Z61	X62	Y62	Z62	X63	Y63	Z63	

1093	5.46	-97.75252532958987	1793.114379882813	-1185.971313476563	-205.2424926757813	1717.189208984375	-1235.47900390625	-256.8009338378907	1665.358520507813	-1107.2822265625	-246.9925079345704	1580.838623046875	-1148.495361328125	-339.3918457031251	1273.46923828125	-1120.095336914063	-136.8769683837891	1481.850830078125	-1150.605346679688	-181.4240264892578	1517.913452148438	-1333.96875	-356.3769836425782	1385.636962890625	-1399.464111328125	-348.4785156250001	1339.183837890625	-1382.537231445313	-406.694793701172	1338.268920898438	-1400.229736328125	-460.563201904297	1308.378051757813	-1393.770629882813	-480.6292724609376	1333.080200195313	-1335.389282226563	-592.0161132812501	1067.19873046875	-1306.814208984375	-607.0520629882814	1072.554931640625	-1382.398559570313	-660.1938476562501	1002.583862304688	-1301.463012695313	-164.5726623535157	1511.501708984375	-968.5457763671877	-339.7455139160157	1389.038696289063	-880.0650634765627	-323.5943908691407	1342.162475585938	-879.2337646484377	-383.4414978027344	1336.306518554688	-871.1987915039065	-418.5452270507814	1284.39404296875	-862.9451904296877	-442.6002197265626	1283.77783203125	-936.843200683594	-472.2408142089845	994.3876953125002	-879.3936767578127	-517.4207153320314	1025.425659179688	-825.2191162109377	-541.2698364257814	924.0356445312502	-878.5220947265627	-183.1430053710938	1068.360595703125	-1225.001586914063	-164.6049194335938	1085.876708984375	-998.5397949218752	-360.1021728515626	1127.455932617188	-1095.3828125	-367.8371582031251	1094.624877929688	-1119.64892578125	-361.9987182617188	1096.7041015625	-1063.209350585938	-297.5870056152344	813.6767578125002	-1258.533203125	-256.1228027343751	739.4013061523439	-1261.969604492188	-210.3758544921876	745.1464843750001	-1270.001831054688	-274.8250122070313	686.0217895507814	-1246.357177734375	-249.9414062500001	553.6204833984376	-1235.99951171875	-251.4491424560547	540.3944091796876	-1103.59326171875	-243.5008392333985	327.9370422363282	-1181.074340820313	-318.6445922851563	299.0438537597657	-1219.658569335938	-278.2127990722657	285.3907165527344	-1204.632568359375	-284.3158569335938	209.4915008544922	-1164.962890625	-362.8670959472657	132.8805084228516	-1173.41845703125	-331.9560241699219	147.2416687011719	-1092.76611328125	-430.2503967285157	103.6601028442383	-1126.279296875	-217.5409698486329	57.42868423461915	-1104.292236328125	-217.8763580322266	51.01730346679689	-1150.124389648438	-270.9000854492188	39.08537292480469	-1199.016479492188	-170.3595123291016	821.5423583984377	-917.997253417969	-127.8729324340821	769.7041015625002	-922.9418945312502	-96.89720153808597	776.7222290039065	-935.1406860351565	-146.5811004638672	688.9189453125001	-929.8125000000002	-141.9447021484375	568.0975341796876	-940.9445800781252	-144.8959350585938	556.6740722656251	-1068.30029296875	-187.3628387451172	384.7601318359376	-955.3848876953127	-290.7549438476563	358.4202880859376	-933.7128906250002	-253.5019836425782	331.7504272460938	-941.3359985351565	-262.4203796386719	281.1733093261719	-972.2559814453127	-367.7020263671876	208.9633178710938	-949.8921508789065	-339.0065307617188	210.4766998291016	-1035.279663085938	-441.5869140625001	184.0133361816407	-1010.627990722656	-235.6224517822266	104.8941802978516	-1001.569580078125	-241.2312316894532	107.4186248779297	-962.3501586914065	-292.0310668945313	100.146728515625	-914.1181640625002	nan	nan	nan	nan	nan	nan	
1094	5.465	-96.57188415527347	1792.599365234375	-1185.517211914063	-204.7561340332032	1717.426391601563	-1235.433227539063	-256.3332519531251	1665.707763671875	-1106.820434570313	-246.5300598144532	1581.157104492188	-1148.076538085938	-340.3489685058594	1273.619750976563	-1119.861938476563	-136.6977233886719	1481.999633789063	-1150.053100585938	-181.091552734375	1518.158813476563	-1333.559814453125	-357.2929382324219	1387.593994140625	-1398.619506835938	-349.8914489746094	1340.706420898438	-1382.029418945313	-408.4768066406251	1340.884155273438	-1399.352905273438	-462.4427490234376	1311.42138671875	-1392.90869140625	-481.3681030273439	1335.410278320313	-1334.16162109375	-595.3277587890626	1071.012451171875	-1306.380859375	-611.0707397460939	1076.845336914063	-1381.956176757813	-665.4084472656251	1007.465881347656	-1301.1083984375	-164.4739379882813	1512.385864257813	-967.9443969726565	-340.9073791503907	1390.72412109375	-880.7734375000002	-325.5009460449219	1343.9453125	-879.0313110351565	-384.710662841797	1338.1728515625	-872.0830078125002	-420.3959350585939	1286.463256835938	-863.5998535156252	-443.8868103027345	1285.424072265625	-938.0863037109377	-474.3647766113282	996.619323730469	-878.2147216796877	-520.1652832031251	1027.862060546875	-824.856628417969	-544.2430419921876	926.8367919921877	-877.4590454101565	-182.9322662353516	1068.509399414063	-1224.774536132813	-163.9647979736328	1085.755004882813	-998.4139404296877	-358.4272766113282	1127.315063476563	-1094.551147460938	-367.4862670898438	1094.73974609375	-1119.201538085938	-361.6627807617188	1096.96142578125	-1062.645141601563	-297.5281066894532	813.7846679687502	-1258.267456054688	-256.0305786132813	739.4373168945314	-1261.85595703125	-210.4305267333985	745.2632446289064	-1269.856689453125	-274.9302368164063	686.1932373046876	-1246.167358398438	-250.2364044189454	553.7703247070314	-1235.874389648438	-251.6268768310547	540.4569702148439	-1103.349487304688	-243.7603149414063	328.0157775878907	-1181.031860351563	-318.7436523437501	299.1669616699219	-1219.58203125	-278.2882995605469	284.9608154296876	-1204.766479492188	-284.3945922851563	209.5555725097657	-1165.0537109375	-362.8576965332032	132.8537902832032	-1173.380004882813	-331.9346618652344	147.2752990722657	-1092.76953125	-430.2792968750001	103.6913528442383	-1126.303588867188	-217.5535736083985	57.4059295654297	-1104.265380859375	-218.8170471191407	51.42311859130861	-1150.636474609375	-270.9422607421876	39.07724380493165	-1199.005981445313	-170.7163696289063	821.5109863281252	-917.4188232421877	-128.2315826416016	769.6472778320315	-922.9406738281252	-97.73231506347659	776.6369628906252	-933.4942626953127	-147.5267944335938	688.7365722656251	-929.1238403320315	-142.329833984375	567.8649291992189	-939.9501953125002	-145.3168182373047	555.6409912109376	-1067.6806640625	-187.0431671142578	384.0852355957032	-954.699157714844	-290.0599670410157	356.7627563476563	-933.0027465820315	-253.1621704101563	330.4108581542969	-940.4127197265627	-261.2796020507813	279.8211059570313	-971.463317871094	-366.6818542480469	206.6381835937501	-949.3958740234377	-338.0680236816407	208.6988372802735	-1034.766235351563	-439.7865600585939	180.7215423583985	-1009.269958496094	-233.3258666992188	103.453842163086	-1001.2529296875	-239.2092437744141	106.0107116699219	-961.4434814453127	-289.7304382324219	98.06990051269534	-913.5607910156252	nan	nan	nan	nan	nan	nan	
1095	5.47	-95.80429840087892	1792.417846679688	-1185.030639648438	-204.4041290283204	1717.433715820313	-1234.5615234375	-256.0801086425782	1665.854125976563	-1106.448120117188	-246.1146087646485	1581.345947265625	-1147.5341796875	-340.1602783203126	1273.617919921875	-1119.329711914063	-136.5853271484375	1482.124389648438	-1149.4599609375	-180.8223266601563	1518.425903320313	-1333.133666992188	-358.2462158203126	1389.351684570313	-1397.84326171875	-351.0155639648438	1342.591186523438	-1381.541381835938	-409.3921508789064	1342.962280273438	-1398.540771484375	-463.5244445800782	1313.889770507813	-1391.944946289063	-482.3690490722657	1338.005859375	-1332.839477539063	-597.7264404296876	1074.1015625	-1306.128540039063	-614.4106445312501	1080.800415039063	-1381.422241210938	-668.9711303710939	1012.144958496094	-1300.231323242188	-164.2801971435547	1513.156494140625	-967.1940917968752	-342.0706176757813	1392.357543945313	-881.2053222656252	-326.5045471191407	1345.392333984375	-878.908874511719	-386.0764770507814	1340.162353515625	-872.8982543945315	-421.7952270507814	1288.491943359375	-864.3530273437502	-443.783172607422	1286.846923828125	-938.888854980469	-476.0357360839845	998.176208496094	-876.6004028320315	-522.6982421875001	1030.388916015625	-824.8662719726565	-546.3324584960939	928.935974121094	-877.4606933593752	-182.6551361083985	1068.628662109375	-1224.550537109375	-163.453857421875	1085.691650390625	-998.161315917969	-357.8611755371094	1127.362670898438	-1094.108154296875	-367.1959838867188	1094.787475585938	-1118.810546875	-361.2847900390626	1096.968872070313	-1062.179931640625	-297.5320129394532	813.9551391601565	-1258.081909179688	-256.0977172851563	739.5012817382814	-1261.700805664063	-210.6732025146485	745.2501831054689	-1269.610229492188	-275.0639648437501	686.3524169921876	-1246.008911132813	-250.3791961669922	553.9428710937501	-1235.7763671875	-251.6629180908204	540.4540405273439	-1103.296142578125	-244.1479187011719	328.5382385253907	-1181.103515625	-318.8892517089844	299.2890625000001	-1219.525146484375	-278.4208679199219	285.0804138183594	-1204.796508789063	-284.4410095214844	209.6116333007813	-1165.080810546875	-362.8879394531251	132.9438018798828	-1173.340698242188	-331.9228515625001	147.2769775390625	-1092.761840820313	-430.253143310547	103.6939315795899	-1126.26953125	-218.4412536621094	57.07293701171876	-1104.220825195313	-218.7699584960938	51.38789749145509	-1150.661865234375	-270.9221496582032	39.12155151367188	-1199.029663085938	-170.9093627929688	821.4208984375002	-916.977966308594	-128.6301422119141	769.4506835937502	-921.826599121094	-98.25687408447268	776.6165161132815	-932.7520751953127	-148.1013336181641	688.5576171875001	-928.489440917969	-143.2251129150391	567.3432617187501	-939.1082153320315	-145.9431762695313	555.0781860351564	-1066.953369140625	-186.8650054931641	383.1853942871094	-953.9412841796877	-290.1900939941407	354.6751403808594	-932.3627929687502	-252.6874389648438	328.6625976562501	-939.7087402343752	-260.5115356445313	278.3163452148438	-970.7283935546877	-365.3052673339844	204.5773162841797	-948.6542968750002	-336.4465026855469	206.6621856689454	-1033.981567382813	-438.0326232910157	178.3289489746094	-1008.76806640625	-231.2014617919922	102.3540267944336	-1000.720397949219	-237.1037750244141	104.6149215698242	-961.0822753906252	-287.8982849121094	96.79665374755862	-912.8166503906252	nan	nan	nan	nan	nan	nan	
1096	5.475000000000001	-94.98267364501955	1792.368530273438	-1184.570190429688	-203.8533935546876	1717.583251953125	-1233.9501953125	-255.8468933105469	1666.05810546875	-1105.983154296875	-246.0038452148438	1581.55859375	-1147.048828125	-339.9383544921876	1273.685180664063	-1118.741088867188	-136.5009460449219	1482.24462890625	-1148.886352539063	-180.6454162597657	1518.716674804688	-1332.766723632813	-358.8706970214844	1391.173583984375	-1396.994262695313	-352.1416320800782	1344.083862304688	-1380.948120117188	-410.9322204589845	1345.347412109375	-1397.684448242188	-465.064422607422	1316.434692382813	-1391.008544921875	-482.9779052734376	1340.224975585938	-1331.498291015625	-600.4914550781251	1077.369384765625	-1305.825439453125	-617.4380493164064	1084.340209960938	-1381.115478515625	-672.9942626953126	1017.000305175781	-1299.565063476563	-164.2833404541016	1513.575927734375	-966.5286254882815	-343.1698608398438	1393.791381835938	-881.9236450195315	-327.4017944335938	1346.904052734375	-879.059753417969	-387.4201965332032	1341.609619140625	-873.7178344726565	-423.058319091797	1289.99951171875	-865.1613769531252	-442.3790588378907	1288.037719726563	-940.1512451171877	-477.487274169922	999.7192993164065	-875.317810058594	-525.1198730468751	1032.745971679688	-824.5100708007815	-548.8515014648439	931.3205566406252	-876.5549316406252	-182.4388275146485	1068.801391601563	-1224.340087890625	-162.783187866211	1085.792358398438	-998.0999755859377	-356.6317138671876	1126.8037109375	-1093.532104492188	-364.2062988281251	1093.66064453125	-1117.9111328125	-360.7421264648438	1096.814086914063	-1061.63916015625	-297.5326538085938	814.0372314453127	-1257.905151367188	-256.0649719238282	739.6263427734376	-1261.494506835938	-210.6331634521485	745.3190307617189	-1269.412963867188	-275.0671691894532	686.4514770507814	-1245.806030273438	-250.3346405029297	553.5047607421876	-1235.802612304688	-251.6925811767579	540.4994506835939	-1103.15283203125	-244.1611328125001	328.4214172363282	-1181.024536132813	-318.9466857910157	299.2947692871094	-1219.5029296875	-278.4815673828126	285.1006774902344	-1204.80810546875	-284.5112609863282	209.6923065185547	-1165.120971679688	-362.8362731933594	132.9165496826172	-1173.255493164063	-331.9563903808594	147.2836456298828	-1092.784912109375	-430.2598266601564	103.746940612793	-1126.251098632813	-218.3451080322266	56.89157485961915	-1104.098876953125	-218.8129577636719	51.39352798461915	-1150.624145507813	-270.9248046875001	39.08769607543946	-1199.032958984375	-171.3885803222657	821.2840576171877	-916.5571289062502	-129.2280578613282	769.5058593750002	-921.3347167968752	-98.45877075195315	776.2432861328127	-932.5784912109377	-148.8269500732422	688.6279907226564	-928.0486450195315	-144.6292266845703	566.6065673828126	-938.385437011719	-147.1736297607422	554.9693603515626	-1066.014282226563	-186.5785217285157	382.2691345214844	-953.075134277344	-289.4015197753907	353.6201477050782	-931.450622558594	-251.8636932373047	327.4295959472657	-938.9393310546877	-259.6901550292969	277.0431213378907	-970.0247802734377	-363.3686523437501	202.5603485107422	-947.5391235351565	-335.2184753417969	204.7156372070313	-1033.30615234375	-436.8835754394532	175.9006500244141	-1007.854248046875	-229.5198059082032	100.6449813842774	-1000.037719726563	-234.9590911865235	102.4486389160157	-960.178161621094	-285.9958801269532	95.35032653808595	-912.2065429687502	nan	nan	nan	nan	nan	nan	
